<?xml version="1.0" encoding="utf-8"?>
<svg width="303px" height="163px" viewBox="0 0 303 163" version="1.1" xmlns:xlink="http://www.w3.org/1999/xlink" xmlns="http://www.w3.org/2000/svg">
  <desc>Created with Lunacy</desc>
  <defs>
    <rect width="303" height="163" id="artboard_1" />
    <clipPath id="clip_1">
      <use xlink:href="#artboard_1" clip-rule="evenodd" />
    </clipPath>
  </defs>
  <g id="Artboard" clip-path="url(#clip_1)">
    <use xlink:href="#artboard_1" stroke="none" fill="#FC7449" />
    <path d="M0 0L64 0L64 360L0 360L0 0Z" transform="matrix(0.5 0.8660255 -0.8660255 0.5 278.76917 -58.000122)" id="Rectangle" fill="#FC8059" fill-rule="evenodd" stroke="none" />
    <path d="M0 39L60 0" transform="translate(0 -6.1035156E-05)" id="Line" fill="none" fill-rule="evenodd" stroke="#FC8059" stroke-width="1" />
    <path d="M0 132L226 0" transform="translate(0 -1.000061)" id="Line-2" fill="none" fill-rule="evenodd" stroke="#FC8E6B" stroke-width="1" />
    <path d="M0 0L129 0L129 29L0 29L0 0Z" transform="matrix(0.8660255 -0.49999988 0.49999988 0.8660255 61 34.5)" id="Rectangle" fill="#FC784E" fill-rule="evenodd" stroke="none" />
    <path d="M0 0L193 0L193 40L0 40L0 0Z" transform="matrix(0.8660254 -0.5 0.5 0.8660254 98.410034 165.92847)" id="Rectangle" fill="#FC784E" fill-rule="evenodd" stroke="none" />
    <path d="M0 0L45 0L45 30L0 30L0 0Z" transform="matrix(0.8660254 -0.5 0.5 0.8660254 264 163.49994)" id="Rectangle" fill="#FC835D" fill-rule="evenodd" stroke="none" />
    <path d="M65 0L0 39" transform="translate(238 130.99994)" id="Line" fill="none" fill-rule="evenodd" stroke="#FC855F" stroke-width="1" />
  </g>
</svg>